<?xml version="1.0" encoding="UTF-8"?><svg id="Capa_2" xmlns="http://www.w3.org/2000/svg" viewBox="0 0 84.38 100"><defs><style>.cls-1{fill:#fff;stroke-width:0px;}</style></defs><g id="Capa_1-2"><path class="cls-1" d="m77.73,24.08c-4.41-7.45-10.62-13.39-18.44-17.65C51.47,2.16,42.38,0,32.27,0h-12.87v17.84H0v64.32h19.39v17.84h12.87c10.12,0,19.21-2.16,27.02-6.42,7.82-4.27,14.03-10.23,18.44-17.73,4.41-7.49,6.65-16.19,6.65-25.85s-2.24-18.47-6.65-25.92Zm-32.97,54.25c-3.76,1.56-7.9,2.35-12.31,2.35h-11.57V19.32h11.57c4.41,0,8.55.79,12.31,2.35,3.76,1.56,7.09,3.75,9.88,6.49,2.79,2.75,5,6.02,6.56,9.74,1.56,3.71,2.35,7.78,2.35,12.1s-.79,8.38-2.35,12.1c-1.56,3.71-3.77,6.99-6.56,9.73-2.8,2.75-6.12,4.94-9.88,6.5Z"/></g></svg>