<?xml version="1.0" encoding="UTF-8"?><svg id="uuid-0b107c4c-9e56-446b-a7fa-e72e92e0e0b4" xmlns="http://www.w3.org/2000/svg" viewBox="0 0 715.05 136.12"><defs><style>.uuid-13beede5-4110-4867-9da3-5ad59852f686{fill:#2387e9;stroke-width:0px;}</style></defs><g id="uuid-4113fb10-48ba-4489-9ae3-7d7b63e14007"><path class="uuid-13beede5-4110-4867-9da3-5ad59852f686" d="m172.83,136.12c-9.23,0-17.46-2.04-24.68-6.1-7.23-4.07-12.87-9.68-16.94-16.85-4.07-7.16-6.1-15.42-6.1-24.77s2-17.61,6.01-24.77c4.01-7.16,9.59-12.78,16.76-16.85,7.16-4.07,15.36-6.1,24.59-6.1s17.61,2.04,24.77,6.1c7.16,4.07,12.75,9.68,16.76,16.85,4.01,7.17,6.01,15.42,6.01,24.77s-2,17.61-6.01,24.77c-4.01,7.17-9.56,12.78-16.67,16.85-7.1,4.07-15.27,6.1-24.5,6.1Zm0-22.22c4.49,0,8.44-1.09,11.84-3.28,3.4-2.19,6.04-5.19,7.92-9.02,1.88-3.83,2.82-8.23,2.82-13.21s-.97-9.38-2.91-13.21c-1.94-3.82-4.64-6.83-8.11-9.02-3.46-2.19-7.44-3.28-11.93-3.28s-8.29,1.09-11.75,3.28c-3.46,2.19-6.16,5.19-8.11,9.02-1.94,3.83-2.91,8.23-2.91,13.21s.97,9.38,2.91,13.21c1.94,3.82,4.67,6.83,8.2,9.02,3.52,2.19,7.53,3.28,12.02,3.28Z"/><path class="uuid-13beede5-4110-4867-9da3-5ad59852f686" d="m236.05,134V43h22.55l1.45,16.74v74.26h-24Zm60.09-47c0-5.89-.7-10.68-2.09-14.09-1.4-3.4-3.37-5.86-5.92-7.38-2.55-1.52-5.53-2.28-8.92-2.28-6.19-.12-10.96,1.76-14.3,5.65-3.34,3.89-5.01,9.65-5.01,17.09h-8.01c0-9.5,1.43-17.73,4.28-24.47,2.85-6.74,6.86-11.9,12.02-15.48,5.16-3.58,11.2-5.37,18.12-5.37s13.3,1.46,18.4,4.37c5.1,2.91,8.98,7.44,11.66,13.57,2.67,6.13,3.94,14.06,3.7,23.77v4.61h-23.91Zm-.09,47v-47h24v47h-24Z"/><path class="uuid-13beede5-4110-4867-9da3-5ad59852f686" d="m331.05,63v-20h62v20h-62Zm45.55,72.67c-10.06,0-17.67-2.49-22.82-7.47-5.15-4.98-7.73-12.08-7.73-21.31V14h24v87.61c0,3.89.85,6.83,2.55,8.83,1.7,2,4.18,3.01,7.46,3.01,1.21,0,2.54-.27,4-.82,1.45-.55,2.97-1.37,4.55-2.46l8.36,18.03c-2.91,2.18-6.15,3.98-9.73,5.37-3.58,1.39-7.12,2.09-10.64,2.09Z"/><path class="uuid-13beede5-4110-4867-9da3-5ad59852f686" d="m453.68,136.12c-9.23,0-17.46-2.04-24.68-6.1-7.23-4.07-12.87-9.68-16.94-16.85-4.07-7.16-6.1-15.42-6.1-24.77s2-17.61,6.01-24.77c4.01-7.16,9.59-12.78,16.76-16.85,7.16-4.07,15.36-6.1,24.59-6.1s17.61,2.04,24.77,6.1c7.16,4.07,12.75,9.68,16.76,16.85,4.01,7.17,6.01,15.42,6.01,24.77s-2,17.61-6.01,24.77c-4.01,7.17-9.56,12.78-16.67,16.85-7.1,4.07-15.27,6.1-24.5,6.1Zm0-22.22c4.49,0,8.44-1.09,11.84-3.28,3.4-2.19,6.04-5.19,7.92-9.02,1.88-3.83,2.82-8.23,2.82-13.21s-.97-9.38-2.91-13.21c-1.94-3.82-4.64-6.83-8.11-9.02-3.46-2.19-7.44-3.28-11.93-3.28s-8.29,1.09-11.75,3.28c-3.46,2.19-6.16,5.19-8.11,9.02-1.94,3.83-2.91,8.23-2.91,13.21s.97,9.38,2.91,13.21c1.94,3.82,4.67,6.83,8.2,9.02,3.52,2.19,7.53,3.28,12.02,3.28Z"/><path class="uuid-13beede5-4110-4867-9da3-5ad59852f686" d="m552.95,136.12c-8.38,0-15.64-1.94-21.77-5.83-6.13-3.89-10.9-9.41-14.3-16.57-3.4-7.16-5.1-15.6-5.1-25.32s1.7-18.3,5.1-25.41c3.4-7.1,8.16-12.6,14.3-16.48,6.13-3.89,13.39-5.83,21.77-5.83,7.65,0,14.11,1.94,19.4,5.83,5.28,3.89,9.32,9.38,12.11,16.48,2.79,7.1,4.19,15.57,4.19,25.41s-1.4,18.15-4.19,25.32c-2.79,7.17-6.83,12.69-12.11,16.57-5.28,3.89-11.75,5.83-19.4,5.83Zm6.19-22.04c4.13,0,7.8-1.09,11.02-3.28,3.22-2.19,5.74-5.22,7.56-9.11,1.82-3.88,2.73-8.32,2.73-13.3s-.91-9.41-2.73-13.3c-1.82-3.89-4.34-6.89-7.56-9.02-3.22-2.12-6.95-3.19-11.2-3.19s-8.2,1.06-11.47,3.19c-3.28,2.13-5.89,5.13-7.83,9.02-1.94,3.89-2.91,8.32-2.91,13.3s.97,9.41,2.91,13.3c1.94,3.89,4.58,6.92,7.92,9.11,3.34,2.19,7.19,3.28,11.56,3.28Zm22.18,19.92l-1.27-16.87V7h24v127h-22.73Z"/><path class="uuid-13beede5-4110-4867-9da3-5ad59852f686" d="m667.87,136.12c-9.23,0-17.46-2.04-24.68-6.1-7.23-4.07-12.87-9.68-16.94-16.85-4.07-7.16-6.1-15.42-6.1-24.77s2-17.61,6.01-24.77c4.01-7.16,9.59-12.78,16.76-16.85,7.16-4.07,15.36-6.1,24.59-6.1s17.61,2.04,24.77,6.1c7.16,4.07,12.75,9.68,16.76,16.85,4.01,7.17,6.01,15.42,6.01,24.77s-2,17.61-6.01,24.77c-4.01,7.17-9.56,12.78-16.67,16.85-7.1,4.07-15.27,6.1-24.5,6.1Zm0-22.22c4.49,0,8.44-1.09,11.84-3.28,3.4-2.19,6.04-5.19,7.92-9.02,1.88-3.83,2.82-8.23,2.82-13.21s-.97-9.38-2.91-13.21c-1.94-3.82-4.64-6.83-8.11-9.02-3.46-2.19-7.44-3.28-11.93-3.28s-8.29,1.09-11.75,3.28c-3.46,2.19-6.16,5.19-8.11,9.02-1.94,3.83-2.91,8.23-2.91,13.21s.97,9.38,2.91,13.21c1.94,3.82,4.67,6.83,8.2,9.02,3.52,2.19,7.53,3.28,12.02,3.28Z"/><rect class="uuid-13beede5-4110-4867-9da3-5ad59852f686" x=".5" y="24.59" width="27.18" height="85.83"/><path class="uuid-13beede5-4110-4867-9da3-5ad59852f686" d="m27.18,25.09v84.83H1V25.09h26.18m1-1H0v86.83h28.18V24.09h0Z"/><path class="uuid-13beede5-4110-4867-9da3-5ad59852f686" d="m26.68,134.5v-25.09h17.12c6.02,0,11.67-1.08,16.81-3.21,5.13-2.13,9.68-5.11,13.5-8.88,3.82-3.76,6.83-8.23,8.96-13.3,2.13-5.08,3.21-10.63,3.21-16.52s-1.08-11.45-3.21-16.52c-2.13-5.07-5.15-9.55-8.96-13.31-3.82-3.75-8.36-6.74-13.5-8.87-5.14-2.13-10.8-3.21-16.81-3.21h-17.12V.5h16.88c13.57,0,25.77,2.9,36.24,8.61,10.48,5.71,18.79,13.67,24.7,23.65,5.91,9.98,8.91,21.66,8.91,34.74s-3,24.61-8.9,34.64c-5.91,10.04-14.22,18.03-24.7,23.75-10.48,5.71-22.67,8.61-36.24,8.61h-16.88Z"/><path class="uuid-13beede5-4110-4867-9da3-5ad59852f686" d="m43.56,1c13.55,0,25.55,2.85,36,8.55,10.45,5.7,18.62,13.52,24.51,23.46,5.89,9.94,8.84,21.44,8.84,34.48s-2.95,24.39-8.84,34.39c-5.89,10.01-14.06,17.86-24.51,23.56-10.45,5.7-22.45,8.55-36,8.55h-16.38v-24.09h16.62c6.11,0,11.78-1.08,17-3.25,5.22-2.16,9.77-5.16,13.66-8.98,3.88-3.82,6.91-8.31,9.08-13.47,2.16-5.16,3.25-10.73,3.25-16.72s-1.08-11.56-3.25-16.72c-2.17-5.16-5.19-9.65-9.08-13.47-3.89-3.82-8.44-6.81-13.66-8.98-5.22-2.16-10.89-3.25-17-3.25h-16.62V1h16.38m0-1h-17.38v26.09h17.62c5.95,0,11.54,1.07,16.62,3.17,5.08,2.11,9.57,5.06,13.34,8.77,3.77,3.71,6.75,8.13,8.85,13.14,2.1,5.01,3.17,10.51,3.17,16.33s-1.07,11.32-3.17,16.33c-2.11,5.01-5.09,9.43-8.85,13.14-3.78,3.72-8.27,6.67-13.34,8.77-5.08,2.1-10.67,3.17-16.62,3.17h-17.62v26.09h17.38c13.66,0,25.93-2.92,36.48-8.67,10.56-5.76,18.94-13.81,24.89-23.93,5.95-10.11,8.97-21.85,8.97-34.9s-3.02-24.94-8.97-34.99c-5.96-10.06-14.33-18.07-24.89-23.83C69.49,2.92,57.22,0,43.56,0h0Z"/></g></svg>